# xmcd CD database file
#
# Track frame offsets:
#	150
#	17851
#	25217
#	43946
#	80621
#	106394
#	118017
#	129458
#	160082
#	174317
#	204723
#	224259
#	238292
#	253906
#	281146
#	293034
#	316657
#	334969
#
# Disc length: 4642 seconds
#
# Revision: 1
# Processed by: cddbd v1.5.2PL0 Copyright (c) Steve Scherf et al.
# Submitted via: CDex 1.70beta2
#
DISCID=11122012
DTITLE=Oliver Shanti and Friends - The Magic Of Martial Arts
DYEAR=2002
DGENRE=New Age
TTITLE0=Shakti Walks On
TTITLE1=Aom
TTITLE2=A Ballad To Chuang Tzu
TTITLE3=Sangha Way Of Life
TTITLE4=Rhythm Of Tao Te Ching
TTITLE5=Crystal Gandharva
TTITLE6=Brother Go On
TTITLE7=Rainbow Liberty
TTITLE8=Landscape Dreams
TTITLE9=Chenresie, Flame Of Peace And Compassion
TTITLE10=Vida Para Vida
TTITLE11=Strong Impression
TTITLE12=Waves Of Symphony
TTITLE13=Clear Wind
TTITLE14=High And Higher
TTITLE15=Anden Dance Of Joy
TTITLE16=An Ti Dog Ma Ti Sm
TTITLE17=Krya Galaxy
EXTD=YEAR: 2002
EXTT0=
EXTT1=
EXTT2=
EXTT3=
EXTT4=
EXTT5=
EXTT6=
EXTT7=
EXTT8=
EXTT9=
EXTT10=
EXTT11=
EXTT12=
EXTT13=
EXTT14=
EXTT15=
EXTT16=
EXTT17=
PLAYORDER=
